<?xml version="1.0" encoding="UTF-8" standalone="no"?>
<svg
   xmlns:dc="http://purl.org/dc/elements/1.1/"
   xmlns:cc="http://creativecommons.org/ns#"
   xmlns:rdf="http://www.w3.org/1999/02/22-rdf-syntax-ns#"
   xmlns:svg="http://www.w3.org/2000/svg"
   xmlns="http://www.w3.org/2000/svg"
   xmlns:sodipodi="http://sodipodi.sourceforge.net/DTD/sodipodi-0.dtd"
   xmlns:inkscape="http://www.inkscape.org/namespaces/inkscape"
   width="157.8166mm"
   height="61.014015mm"
   viewBox="0 0 157.8166 61.014015"
   version="1.1"
   id="svg1334"
   inkscape:version="1.0.2 (1.0.2+r75+1)"
   sodipodi:docname="hero-illustration.svg">
  <defs
     id="defs1328" />
  <sodipodi:namedview
     id="base"
     pagecolor="#ffffff"
     bordercolor="#666666"
     borderopacity="1.0"
     inkscape:pageopacity="0.0"
     inkscape:pageshadow="2"
     inkscape:zoom="0.24748737"
     inkscape:cx="-422.22181"
     inkscape:cy="366.4519"
     inkscape:document-units="mm"
     inkscape:current-layer="layer1"
     inkscape:document-rotation="0"
     showgrid="false"
     inkscape:window-width="1920"
     inkscape:window-height="1030"
     inkscape:window-x="0"
     inkscape:window-y="0"
     inkscape:window-maximized="1" />
  <metadata
     id="metadata1331">
    <rdf:RDF>
      <cc:Work
         rdf:about="">
        <dc:format>image/svg+xml</dc:format>
        <dc:type
           rdf:resource="http://purl.org/dc/dcmitype/StillImage" />
        <dc:title></dc:title>
      </cc:Work>
    </rdf:RDF>
  </metadata>
  <g
     inkscape:label="Layer 1"
     inkscape:groupmode="layer"
     id="layer1"
     transform="translate(-649.8825,-477.98229)">
    <rect
       class="cls-2"
       x="477.87381"
       y="674.02637"
       width="32.779819"
       height="24.775942"
       rx="3.9927669"
       transform="rotate(-17.354025)"
       id="rect2990-1-3-5"
       style="fill:none;stroke:#141414;stroke-width:1.09175px;stroke-miterlimit:10" />
    <polygon
       class="cls-1"
       points="74.15,22.37 72.54,30.6 82.84,35.54 80.67,40.05 66.89,33.44 69.24,21.41 "
       id="polygon2924-9-5-0"
       transform="matrix(0.30396692,0,0,0.30396692,646.37122,477.86066)"
       style="fill:#f9b117" />
    <polygon
       class="cls-2"
       points="74.15,22.37 72.54,30.6 82.84,35.54 80.67,40.05 66.89,33.44 69.24,21.41 "
       id="polygon2926-1-7-9"
       transform="matrix(0.30396692,0,0,0.30396692,646.37122,477.86066)"
       style="fill:#536c53;stroke:#141414;stroke-width:2px;stroke-miterlimit:10" />
    <circle
       class="cls-3"
       cx="668.16559"
       cy="483.38986"
       r="1.8937138"
       id="circle2928-0-0-6"
       style="fill:#0e394f;stroke-width:0.303967" />
    <circle
       class="cls-2"
       cx="668.16559"
       cy="483.38986"
       r="1.8937138"
       id="circle2930-7-8-3"
       style="fill:none;stroke:#141414;stroke-width:1.09175px;stroke-miterlimit:10" />
    <path
       class="cls-4"
       d="m 665.87982,493.84934 a 6.6872721,6.6872721 0 0 1 11.07351,-3.43484 l 3.49865,3.25246 12.01278,11.10695 -15.62693,4.86346 -15.62391,4.86347 3.61417,-16.00081 z"
       id="path2932-5-1-8"
       style="fill:#b7c8b7;stroke-width:0.303967" />
    <path
       class="cls-5"
       d="m 680.92921,494.05908 -15.4719,4.80267 0.23708,-1.04868 a 15.116275,15.116275 0 0 0 4.62942,-1.65359 14.310762,14.310762 0 0 0 6.00942,-6.12493 6.8210176,6.8210176 0 0 1 1.21587,0.91191 z"
       id="path2934-8-9-5"
       style="fill:#374837;stroke-width:0.303967" />
    <path
       class="cls-8"
       d="m 667.51664,521.35693 5.10103,-1.58195 3.00365,9.68526 a 2.6749088,2.6749088 0 0 1 -1.76254,3.3472 v 0 a 2.6749088,2.6749088 0 0 1 -3.3472,-1.76252 l -3.00365,-9.68528 z"
       id="path2944-7-9-6"
       style="fill:#93ac93;stroke-width:0.303967" />
    <path
       class="cls-2"
       d="m 667.51664,521.35693 5.10103,-1.58195 3.00365,9.68526 a 2.6749088,2.6749088 0 0 1 -1.76254,3.3472 v 0 a 2.6749088,2.6749088 0 0 1 -3.3472,-1.76252 l -3.00365,-9.68528 z"
       id="path2948-0-7-1"
       style="fill:none;stroke:#141414;stroke-width:1.09175px;stroke-miterlimit:10" />
    <path
       class="cls-4"
       d="m 669.07126,517.09652 18.41827,-5.71197 3.69154,11.90336 a 5.4714044,5.4714044 0 0 1 -3.6052,6.84654 l -7.98395,2.47602 a 5.4714044,5.4714044 0 0 1 -6.84654,-3.6052 l -3.69154,-11.90334 z"
       id="path2954-4-8-1"
       style="fill:#b7c8b7;stroke-width:0.303967" />
    <rect
       class="cls-10"
       x="485.8717"
       y="697.55029"
       width="19.283661"
       height="2.3648627"
       transform="rotate(-17.23)"
       id="rect2956-8-2-5"
       style="fill:#536c53;stroke-width:0.303967" />
    <path
       class="cls-2"
       d="m 669.07126,517.09652 18.41827,-5.71197 3.69154,11.90336 a 5.4714044,5.4714044 0 0 1 -3.6052,6.84654 l -7.98395,2.47602 a 5.4714044,5.4714044 0 0 1 -6.84654,-3.6052 l -3.69154,-11.90334 z"
       id="path2958-0-5-9"
       style="fill:none;stroke:#141414;stroke-width:1.09175px;stroke-miterlimit:10" />
    <path
       class="cls-2"
       d="m 665.87982,493.84934 a 6.6872721,6.6872721 0 0 1 11.07351,-3.43484 l 3.49865,3.25246 11.70881,11.10695 -15.32296,4.86346 -15.31995,4.86347 3.31021,-16.00081 z"
       id="path2960-4-3-8"
       style="fill:none;stroke:#141414;stroke-width:1.09175px;stroke-miterlimit:10" />
    <rect
       class="cls-1"
       x="477.87381"
       y="674.02637"
       width="32.779819"
       height="24.775942"
       rx="3.9927669"
       transform="rotate(-17.354025)"
       id="rect2962-2-4-4"
       style="fill:#b7c8b7;stroke-width:0.305725" />
    <path
       class="cls-11"
       d="m 693.90861,509.63434 0.37691,1.21585 a 3.969808,3.969808 0 0 1 -2.61412,4.96683 l -23.54527,7.29522 a 3.9728477,3.9728477 0 0 1 -4.96986,-2.61413 l -0.37692,-1.21587 a 3.969808,3.969808 0 0 0 4.96681,2.61412 l 23.54832,-7.29521 a 3.9515698,3.9515698 0 0 0 2.61413,-4.96681 z"
       id="path2964-9-9-8"
       style="opacity:0.5;fill:#1c241c;stroke-width:0.303967" />
    <rect
       class="cls-3"
       x="480.06284"
       y="676.15125"
       width="28.401838"
       height="20.520252"
       rx="2.3968828"
       transform="rotate(-17.354025)"
       id="rect2966-6-0-1"
       style="fill:#0e394f;stroke-width:0.305725" />
    <path
       class="cls-12"
       d="m 691.38567,508.86531 0.6657,2.12776 a 2.3831006,2.3831006 0 0 1 -1.57152,2.98192 l -22.41755,6.95172 a 2.3861402,2.3861402 0 0 1 -2.98496,-1.57152 l -0.66264,-2.12776 a 2.3831006,2.3831006 0 0 0 2.9819,1.56846 l 22.42061,-6.95475 a 2.380061,2.380061 0 0 0 1.56846,-2.97583 z"
       id="path2968-1-2-0"
       style="fill:#062538;stroke-width:0.303967" />
    <rect
       class="cls-13"
       x="491.09442"
       y="682.04578"
       width="1.8663568"
       height="5.7236967"
       rx="0.93317842"
       transform="rotate(-17.23)"
       id="rect2970-0-0-3"
       style="fill:#dbe3db;stroke-width:0.303967" />
    <rect
       class="cls-13"
       x="498.06281"
       y="682.04614"
       width="1.8663568"
       height="5.7236967"
       rx="0.93317842"
       transform="rotate(-17.23)"
       id="rect2972-4-1-0"
       style="fill:#dbe3db;stroke-width:0.303967" />
    <rect
       class="cls-14"
       x="676.92554"
       y="-487.72659"
       width="1.5684693"
       height="4.7023683"
       rx="0.78423464"
       transform="rotate(72.760001)"
       id="rect2974-2-9-4"
       style="fill:#185472;stroke-width:0.303967" />
    <circle
       class="cls-14"
       cx="667.96198"
       cy="502.34525"
       r="0.74775863"
       id="circle2976-2-6-4"
       style="fill:#185472;stroke-width:0.303967" />
    <rect
       class="cls-15"
       x="485.33823"
       y="673.41907"
       width="6.1158152"
       height="1.0973206"
       rx="0.55018014"
       transform="rotate(-17.23)"
       id="rect2978-2-2-4"
       style="fill:#536c53;fill-opacity:1;stroke-width:0.303967" />
    <circle
       class="cls-15"
       cx="669.8678"
       cy="497.86169"
       r="0.5714578"
       id="circle2980-0-1-4"
       style="fill:#6f916f;stroke-width:0.303967" />
    <rect
       class="cls-16"
       x="493.66989"
       y="668.9646"
       width="3.4713023"
       height="0.69304454"
       rx="0.34652227"
       transform="rotate(-17.23)"
       id="rect2982-5-2-7"
       style="fill:#0e394f;fill-opacity:1;stroke-width:0.303967" />
    <rect
       class="cls-16"
       x="493.66919"
       y="667.85358"
       width="3.4713023"
       height="0.69304454"
       rx="0.34652227"
       transform="rotate(-17.23)"
       id="rect2984-5-0-6"
       style="fill:#0e394f;fill-opacity:1;stroke-width:0.303967" />
    <line
       class="cls-28"
       x1="666.24762"
       y1="495.85245"
       x2="666.51208"
       y2="494.50595"
       id="line3116-2-7-3"
       style="fill:none;stroke:#dbe3db;stroke-width:0.303967;stroke-linecap:round;stroke-linejoin:round;stroke-opacity:1" />
    <circle
       class="cls-26"
       cx="666.59717"
       cy="493.99521"
       r="0.19453882"
       id="circle3118-9-3-1"
       style="fill:#dbe3db;fill-opacity:1;stroke-width:0.303967" />
    <path
       class="cls-29"
       d="m 679.19964,496.11389 5.24646,-1.62927 a 2.3861402,2.3861402 0 0 1 2.96066,1.57152 l 1.27665,4.12179"
       id="path3120-0-1-7"
       style="fill:none;stroke:#141414;stroke-width:1.09175px;stroke-linecap:round;stroke-linejoin:round" />
    <line
       class="cls-29"
       x1="673.552"
       y1="497.86169"
       x2="677.02625"
       y2="496.78265"
       id="line3122-2-1-5"
       style="fill:none;stroke:#141414;stroke-width:1.09175px;stroke-linecap:round;stroke-linejoin:round" />
    <path
       class="cls-29"
       d="m 686.29728,515.26988 -18.23802,5.65683 a 2.3861402,2.3861402 0 0 1 -2.98495,-1.57152 l -4.62943,-14.93084 a 2.3861402,2.3861402 0 0 1 1.57152,-2.98496 l 9.69349,-3.00624"
       id="path3124-8-9-9"
       style="fill:none;stroke:#141414;stroke-width:1.09175px;stroke-linecap:round;stroke-linejoin:round" />
    <rect
       class="cls-16"
       x="498.21658"
       y="705.14343"
       width="5.3103018"
       height="1.0608445"
       rx="0.53194213"
       transform="rotate(-17.23)"
       id="rect2986-2-0-6"
       style="fill:#0e394f;fill-opacity:1;stroke-width:0.303967" />
    <rect
       class="cls-16"
       x="496.54221"
       y="704.51703"
       width="5.341013"
       height="1.0669798"
       rx="0.5350185"
       transform="rotate(-17.354025)"
       id="rect2988-8-5-2"
       style="fill:#0e394f;fill-opacity:1;stroke-width:0.305725" />
    <path
       class="cls-17"
       d="m 774.20497,535.80465 c 0,1.76302 -36.08695,3.19166 -67.48066,3.19166 -31.39369,0 -56.84181,-1.42864 -56.84181,-3.19166 0,-1.76302 25.44812,-3.19166 56.84181,-3.19166 31.39371,0 67.48066,1.42864 67.48066,3.19166 z"
       id="path2992-8-6-1"
       style="opacity:0.2;fill:#0e394f;stroke-width:0.303967" />
    <path
       class="cls-2"
       d="m 759.45042,532.82881 h 6.40154 a 7.2952062,7.2952062 0 0 0 5.16746,-2.12776 v 0 a 7.2952062,7.2952062 0 0 1 10.31662,0 l 1.36786,1.36785 a 7.2952062,7.2952062 0 0 0 5.16743,2.12776 h 9.89717"
       id="path2936-6-7-8"
       style="fill:none;stroke:#141414;stroke-width:1.09175px;stroke-miterlimit:10" />
    <path
       class="cls-6"
       d="m 805.11233,531.37584 c -1.47727,-2.82993 -4.12178,-4.9516 -7.53534,-4.9516 a 8.8545562,8.8545562 0 0 0 -8.47764,6.34074 1.9697056,1.9697056 0 0 0 1.89981,2.51076 h 10.85465 l 3.54425,-0.30396"
       id="path2938-4-4-5"
       style="fill:#2c6e9b;stroke-width:0.303967" />
    <path
       class="cls-7"
       d="m 791.86851,532.76498 a 1.966666,1.966666 0 0 0 1.89675,2.51076 h -2.77827 a 1.9697056,1.9697056 0 0 1 -1.89979,-2.51076 8.8545562,8.8545562 0 0 1 8.48979,-6.34074 8.7512078,8.7512078 0 0 1 1.39217,0.10935 8.8606356,8.8606356 0 0 0 -7.10065,6.23133 z"
       id="path2940-1-0-7"
       style="opacity:0.3;fill:#0e3964;stroke-width:0.303967" />
    <path
       class="cls-2"
       d="m 805.42238,534.02036 a 7.4927843,7.4927843 0 0 0 -4.97595,-7.11892 8.8545562,8.8545562 0 0 0 -11.34708,5.83618 1.9757849,1.9757849 0 0 0 1.89067,2.53812 h 13.18305 a 1.2523437,1.2523437 0 0 0 1.25235,-1.25538 z"
       id="path2942-2-6-4"
       style="fill:#004455;stroke:#141414;stroke-width:1.09175px;stroke-miterlimit:10" />
    <path
       class="cls-8"
       d="m 689.6112,515.69652 5.10975,-1.58466 3.00365,9.68528 a 2.6749088,2.6749088 0 0 1 -1.76255,3.34718 v 0 a 2.6749088,2.6749088 0 0 1 -3.3472,-1.76252 z"
       id="path2946-8-4-1"
       style="fill:#fbd766;stroke-width:0.303967" />
    <path
       class="cls-2"
       d="m 689.6112,515.69652 5.10975,-1.58466 3.00365,9.68528 a 2.6749088,2.6749088 0 0 1 -1.76255,3.34718 v 0 a 2.6749088,2.6749088 0 0 1 -3.3472,-1.76252 z"
       id="path2950-8-7-8"
       style="fill:none;stroke:#141414;stroke-width:1.09175px;stroke-miterlimit:10" />
    <line
       class="cls-9"
       x1="672.93835"
       y1="524.08368"
       x2="673.94452"
       y2="527.33002"
       id="line2952-9-4-5"
       style="opacity:0.7;fill:none;stroke:#ffffff;stroke-width:1.52844px;stroke-linecap:round;stroke-linejoin:round" />
    <path
       class="cls-17"
       d="m 807.6991,535.80465 c 0,0.71432 -5.77537,1.29489 -10.79995,1.29489 -5.02458,0 -9.09774,-0.58057 -9.09774,-1.29489 0,-0.71432 4.07316,-1.29491 9.09774,-1.29491 5.02458,0 10.79995,0.58059 10.79995,1.29491 z"
       id="path2994-8-8-9"
       style="opacity:0.2;fill:#0e394f;stroke-width:0.303967" />
    <path
       class="cls-18"
       d="m 763.18921,478.52817 h -62.43784 a 1.8754759,1.8754759 0 0 0 -1.84507,1.55326 l -7.24658,47.60729 a 1.8724362,1.8724362 0 0 0 1.84509,2.18858 h 64.82399 a 1.8693965,1.8693965 0 0 0 1.82379,-1.51983 l 7.49887,-44.42782 a 4.5595038,4.5595038 0 0 0 -4.46225,-5.40148 z"
       id="path2996-6-5-7"
       style="fill:#0e3964;stroke-width:0.303967" />
    <path
       class="cls-2"
       d="m 763.18921,478.52817 h -62.43784 a 1.8754759,1.8754759 0 0 0 -1.84507,1.55326 l -7.24658,47.60729 a 1.8724362,1.8724362 0 0 0 1.84509,2.18858 h 64.82399 a 1.8693965,1.8693965 0 0 0 1.82379,-1.51983 l 7.49887,-44.42782 a 4.5595038,4.5595038 0 0 0 -4.46225,-5.40148 z"
       id="path2998-8-8-5"
       style="fill:#004455;stroke:#141414;stroke-width:1.09175px;stroke-miterlimit:10" />
    <path
       class="cls-6"
       d="M 763.26216,478.52817 H 698.1403 a 2.8633683,2.8633683 0 0 0 -2.82385,2.38004 l -7.48368,48.96909 h 68.74213 l 8.29829,-49.40678 a 1.6383817,1.6383817 0 0 0 -1.61103,-1.94235 z"
       id="path3000-3-2-3"
       style="fill:#006680;stroke-width:0.303967" />
    <path
       class="cls-2"
       d="M 763.26216,478.52817 H 698.1403 a 2.8633683,2.8633683 0 0 0 -2.82385,2.38004 l -7.48368,48.96909 h 68.74213 l 8.29829,-49.40678 a 1.6383817,1.6383817 0 0 0 -1.61103,-1.94235 z"
       id="path3002-8-6-8"
       style="fill:#0b2228;stroke:#116464;stroke-width:1.09175px;stroke-miterlimit:10;stroke-opacity:1" />
    <polygon
       class="cls-3"
       points="367.14,13 160.25,13 138.42,157.93 343.19,157.93 "
       id="polygon3004-3-0-8"
       transform="matrix(0.30396692,0,0,0.30396692,649.8825,478.22419)"
       style="fill:#0e394f" />
    <polygon
       class="cls-12"
       points="367.73,13.22 366.6,19.22 159.8,19.22 160.83,13.22 "
       id="polygon3006-3-6-3"
       transform="matrix(0.30396692,0,0,0.30396692,649.8825,478.22419)"
       style="fill:#062538" />
    <polygon
       class="cls-12"
       points="166.15,13 144.31,157.93 138.31,157.93 160.15,13 "
       id="polygon3008-3-6-1"
       transform="matrix(0.30396692,0,0,0.30396692,649.8825,478.22419)"
       style="fill:#062538" />
    <polygon
       class="cls-13"
       points="189.67,29.07 178.55,29.07 177.13,33.28 189.12,33.28 "
       id="polygon3010-8-4-8"
       transform="matrix(0.30396692,0,0,0.30396692,649.8825,478.22419)"
       style="fill:#4cf58c" />
    <polygon
       class="cls-13"
       points="205.67,29.07 193.55,29.07 192.13,33.28 204.12,33.28 "
       id="polygon3012-0-6-9"
       transform="matrix(0.30396692,0,0,0.30396692,649.8825,478.22419)"
       style="fill:#4cf58c" />
    <polygon
       class="cls-13"
       points="219.67,29.07 208.55,29.07 208.13,33.28 218.12,33.28 "
       id="polygon3014-4-2-6"
       transform="matrix(0.30396692,0,0,0.30396692,649.8825,478.22419)"
       style="fill:#4cf58c" />
    <polygon
       class="cls-13"
       points="229.17,29.07 225.05,29.07 223.63,33.28 228.62,33.28 "
       id="polygon3016-7-8-4"
       transform="matrix(0.30396692,0,0,0.30396692,649.8825,478.22419)"
       style="fill:#4cf58c" />
    <polygon
       class="cls-13"
       points="175.17,29.07 171.05,29.07 169.63,33.28 174.21,33.42 "
       id="polygon3018-6-9-3"
       transform="matrix(0.30396692,0,0,0.30396692,649.8825,478.22419)"
       style="fill:#4cf58c" />
    <polygon
       class="cls-13"
       points="187.67,38.07 176.55,38.07 175.13,42.28 187.12,42.28 "
       id="polygon3020-8-6-3"
       transform="matrix(0.30396692,0,0,0.30396692,649.8825,478.22419)"
       style="fill:#4cf58c" />
    <polygon
       class="cls-13"
       points="202.67,38.07 191.55,38.07 190.13,42.28 202.12,42.28 "
       id="polygon3022-9-0-3"
       transform="matrix(0.30396692,0,0,0.30396692,649.8825,478.22419)"
       style="fill:#4cf58c" />
    <polygon
       class="cls-13"
       points="217.67,38.07 206.55,38.07 206.13,42.28 217.12,42.28 "
       id="polygon3024-0-7-8"
       transform="matrix(0.30396692,0,0,0.30396692,649.8825,478.22419)"
       style="fill:#4cf58c" />
    <polygon
       class="cls-13"
       points="226.17,38.07 222.05,38.07 220.63,42.28 225.62,42.28 "
       id="polygon3026-6-0-6"
       transform="matrix(0.30396692,0,0,0.30396692,649.8825,478.22419)"
       style="fill:#4cf58c" />
    <polygon
       class="cls-13"
       points="173.17,38.07 169.05,38.07 167.63,42.28 172.46,42.28 "
       id="polygon3028-8-1-0"
       transform="matrix(0.30396692,0,0,0.30396692,649.8825,478.22419)"
       style="fill:#4cf58c" />
    <path
       class="cls-19"
       d="m 658.26288,529.57332 h 69.38956 v 6.38332 H 660.6095 a 4.1582675,4.1582675 0 0 1 -4.1613,-4.15828 v -0.41034 a 1.8238015,1.8238015 0 0 1 1.81468,-1.8147 z"
       id="path3030-7-0-4"
       style="fill:#004455;stroke-width:0.303967" />
    <path
       class="cls-7"
       d="m 727.65244,533.5249 v 2.43174 h -67.04597 a 4.1613071,4.1613071 0 0 1 -4.15827,-4.15828 v -0.41034 a 1.7660478,1.7660478 0 0 1 0.18239,-0.79033 4.1734658,4.1734658 0 0 0 3.9759,2.92721 z"
       id="path3032-9-1-8"
       style="opacity:0.3;fill:#0e3964;stroke-width:0.303967" />
    <polygon
       class="cls-7"
       points="353.86,162.93 353.86,168.93 125.03,168.93 125.86,162.93 "
       id="polygon3034-0-3-8"
       transform="matrix(0.30396692,0,0,0.30396692,649.8825,478.22419)"
       style="opacity:0.3;fill:#0e3964" />
    <path
       class="cls-18"
       d="m 677.49789,529.57332 h 24.62134 v 0 a 3.3436361,3.3436361 0 0 1 -3.34365,3.34365 h -17.93403 a 3.3436361,3.3436361 0 0 1 -3.34366,-3.34365 z"
       id="path3036-3-7-8"
       style="fill:#0e3964;stroke-width:0.303967" />
    <path
       class="cls-2"
       d="m 677.49789,529.57332 h 24.62134 v 0 a 3.3436361,3.3436361 0 0 1 -3.34365,3.34365 h -17.93403 a 3.3436361,3.3436361 0 0 1 -3.34366,-3.34365 z"
       id="path3038-3-7-9"
       style="fill:none;stroke:#141414;stroke-width:1.09175px;stroke-miterlimit:10" />
    <polygon
       class="cls-12"
       points="367.05,13 343.1,157.93 138.37,157.93 364.24,13 "
       id="polygon3040-3-2-7"
       transform="matrix(0.30396692,0,0,0.30396692,649.8825,478.22419)"
       style="fill:#062538" />
    <line
       class="cls-20"
       x1="763.06763"
       y1="526.22968"
       x2="761.69672"
       y2="527.1416"
       id="line3042-7-6-7"
       style="fill:none;stroke-width:0.303967" />
    <rect
       class="cls-21"
       x="371.26611"
       y="-831.58582"
       width="4.7054076"
       height="1.0699636"
       rx="0.53498179"
       transform="rotate(98.85)"
       id="rect3044-3-4-6"
       style="fill:#062c4c;stroke-width:0.303967" />
    <rect
       class="cls-21"
       x="364.42209"
       y="-831.58496"
       width="4.7054076"
       height="1.0699636"
       rx="0.53498179"
       transform="rotate(98.85)"
       id="rect3046-2-5-4"
       style="fill:#062c4c;stroke-width:0.303967" />
    <rect
       class="cls-22"
       x="686.31293"
       y="530.71014"
       width="4.7054076"
       height="1.0699636"
       rx="0.53498179"
       id="rect3048-6-2-3"
       style="fill:#141414;stroke-width:0.303967" />
    <rect
       class="cls-6"
       x="660.64905"
       y="529.59161"
       width="9.0065384"
       height="1.6171041"
       rx="0.80855203"
       id="rect3050-5-0-0"
       style="fill:#2c6e9b;stroke-width:0.303967" />
    <circle
       class="cls-6"
       cx="671.15717"
       cy="530.40015"
       r="0.80855203"
       id="circle3052-2-2-3"
       style="fill:#2c6e9b;stroke-width:0.303967" />
    <rect
       class="cls-23"
       x="-400.83746"
       y="762.08441"
       width="9.0065384"
       height="1.6171039"
       rx="0.80855197"
       transform="rotate(-81.12)"
       id="rect3054-6-9-0"
       style="fill:#4d9ac4;stroke-width:0.303967" />
    <circle
       class="cls-23"
       cx="693.49261"
       cy="503.41394"
       r="0.80855203"
       id="circle3056-5-0-9"
       style="fill:#4d9ac4;stroke-width:0.303967" />
    <rect
       class="cls-23"
       x="699.25275"
       y="479.43704"
       width="9.0065384"
       height="1.6171041"
       rx="0.80855203"
       id="rect3058-8-9-2"
       style="fill:#4d9ac4;stroke-width:0.303967" />
    <circle
       class="cls-23"
       cx="709.76086"
       cy="480.24561"
       r="0.80855203"
       id="circle3060-7-9-5"
       style="fill:#4d9ac4;stroke-width:0.303967" />
    <circle
       class="cls-24"
       cx="724.61273"
       cy="480.33072"
       r="0.9119007"
       id="circle3062-9-4-4"
       style="fill:#dbe3de;fill-opacity:1;stroke-width:0.303967" />
    <rect
       class="cls-25"
       x="671.63745"
       y="528.05353"
       width="6.9912391"
       height="1.5198345"
       id="rect3064-6-5-0"
       style="fill:#033156;stroke-width:0.303967" />
    <rect
       class="cls-25"
       x="661.08374"
       y="528.05353"
       width="6.9912391"
       height="1.5198345"
       id="rect3066-0-1-5"
       style="fill:#033156;stroke-width:0.303967" />
    <rect
       class="cls-25"
       x="682.18811"
       y="528.05353"
       width="6.9912391"
       height="1.5198345"
       id="rect3068-4-0-9"
       style="fill:#033156;stroke-width:0.303967" />
    <rect
       class="cls-25"
       x="692.74182"
       y="528.05353"
       width="6.9912391"
       height="1.5198345"
       id="rect3070-1-3-4"
       style="fill:#033156;stroke-width:0.303967" />
    <rect
       class="cls-25"
       x="703.29254"
       y="528.05353"
       width="6.9912391"
       height="1.5198345"
       id="rect3072-0-7-6"
       style="fill:#033156;stroke-width:0.303967" />
    <rect
       class="cls-25"
       x="713.84625"
       y="528.05353"
       width="6.9912391"
       height="1.5198345"
       id="rect3074-4-8-9"
       style="fill:#033156;stroke-width:0.303967" />
    <rect
       class="cls-25"
       x="724.39691"
       y="528.05353"
       width="6.9912391"
       height="1.5198345"
       id="rect3076-8-8-2"
       style="fill:#033156;stroke-width:0.303967" />
    <rect
       class="cls-25"
       x="745.58643"
       y="528.05353"
       width="6.9912391"
       height="1.5198345"
       id="rect3078-7-6-2"
       style="fill:#033156;stroke-width:0.303967" />
    <rect
       class="cls-25"
       x="734.99017"
       y="528.09912"
       width="6.9912391"
       height="1.5198345"
       id="rect3080-0-0-4"
       style="fill:#033156;stroke-width:0.303967" />
    <rect
       class="cls-2"
       x="671.63745"
       y="528.05353"
       width="6.9912391"
       height="1.5198345"
       id="rect3082-8-4-7"
       style="fill:none;stroke:#141414;stroke-width:1.09175px;stroke-miterlimit:10" />
    <rect
       class="cls-2"
       x="661.08374"
       y="528.05353"
       width="6.9912391"
       height="1.5198345"
       id="rect3084-6-6-7"
       style="fill:none;stroke:#141414;stroke-width:1.09175px;stroke-miterlimit:10" />
    <rect
       class="cls-2"
       x="682.18811"
       y="528.05353"
       width="6.9912391"
       height="1.5198345"
       id="rect3086-2-7-5"
       style="fill:none;stroke:#141414;stroke-width:1.09175px;stroke-miterlimit:10" />
    <rect
       class="cls-2"
       x="692.74182"
       y="528.05353"
       width="6.9912391"
       height="1.5198345"
       id="rect3088-4-6-4"
       style="fill:none;stroke:#141414;stroke-width:1.09175px;stroke-miterlimit:10" />
    <rect
       class="cls-2"
       x="703.29254"
       y="528.05353"
       width="6.9912391"
       height="1.5198345"
       id="rect3090-7-0-8"
       style="fill:none;stroke:#141414;stroke-width:1.09175px;stroke-miterlimit:10" />
    <rect
       class="cls-2"
       x="713.84625"
       y="528.05353"
       width="6.9912391"
       height="1.5198345"
       id="rect3092-9-9-1"
       style="fill:none;stroke:#141414;stroke-width:1.09175px;stroke-miterlimit:10" />
    <rect
       class="cls-2"
       x="724.39691"
       y="528.05353"
       width="6.9912391"
       height="1.5198345"
       id="rect3094-3-7-2"
       style="fill:none;stroke:#141414;stroke-width:1.09175px;stroke-miterlimit:10" />
    <rect
       class="cls-2"
       x="745.58643"
       y="528.05353"
       width="6.9912391"
       height="1.5198345"
       id="rect3096-9-5-8"
       style="fill:none;stroke:#141414;stroke-width:1.09175px;stroke-miterlimit:10" />
    <rect
       class="cls-2"
       x="734.99017"
       y="528.09912"
       width="6.9912391"
       height="1.5198345"
       id="rect3098-2-9-9"
       style="fill:none;stroke:#141414;stroke-width:1.09175px;stroke-miterlimit:10" />
    <polygon
       class="cls-2"
       points="367.04,13 160.15,13 138.32,157.93 343.09,157.93 "
       id="polygon3100-8-7-3"
       transform="matrix(0.30396692,0,0,0.30396692,649.8825,478.22419)"
       style="fill:none;stroke:#141414;stroke-width:2px;stroke-miterlimit:10" />
    <path
       class="cls-26"
       d="M 752.83306,487.2125 H 726.6919 a 2.5897982,2.5897982 0 0 0 -2.56547,2.2068 l -2.53812,16.83976 a 2.5928378,2.5928378 0 0 0 2.56547,2.97889 h 25.90712 a 2.5928378,2.5928378 0 0 0 2.56242,-2.17034 l 2.78433,-16.83977 a 2.5928378,2.5928378 0 0 0 -2.57459,-3.01534 z"
       id="path3102-3-8-6"
       style="fill:#ffffff;stroke-width:0.303967" />
    <path
       class="cls-27"
       d="m 755.35903,490.2309 -2.78131,16.83671 a 2.5958775,2.5958775 0 0 1 -2.55939,2.17034 h -25.90405 a 2.5989171,2.5989171 0 0 1 -2.53814,-2.04268 L 752.7206,487.2125 h 0.0821 a 2.5958775,2.5958775 0 0 1 2.55636,3.0184 z"
       id="path3104-0-5-8"
       style="fill:#f4f3f2;stroke-width:0.303967" />
    <path
       class="cls-2"
       d="m 658.26288,529.57332 h 69.38956 v 6.38332 H 660.6095 a 4.1582675,4.1582675 0 0 1 -4.1613,-4.15828 v -0.41034 a 1.8238015,1.8238015 0 0 1 1.81468,-1.8147 z"
       id="path3106-1-3-0"
       style="fill:none;stroke:#141414;stroke-width:1.09175px;stroke-miterlimit:10" />
    <rect
       class="cls-18"
       x="721.2691"
       y="529.5733"
       width="41.643467"
       height="6.3833055"
       rx="3.1916528"
       id="rect3108-7-3-2"
       style="fill:#004455;stroke-width:0.303967" />
    <rect
       class="cls-22"
       x="754.55957"
       y="532.22998"
       width="4.7054076"
       height="1.0699636"
       rx="0.53498179"
       id="rect3110-8-8-1"
       style="fill:#141414;stroke-width:0.303967" />
    <rect
       class="cls-22"
       x="747.71417"
       y="532.22998"
       width="4.7054076"
       height="1.0699636"
       rx="0.53498179"
       id="rect3112-9-3-0"
       style="fill:#141414;stroke-width:0.303967" />
    <rect
       class="cls-2"
       x="721.2691"
       y="529.5733"
       width="41.643467"
       height="6.3833055"
       rx="3.1916528"
       id="rect3114-1-7-5"
       style="fill:none;stroke:#141414;stroke-width:1.09175px;stroke-miterlimit:10" />
    <polygon
       class="cls-8"
       points="265.39,76.4 254.27,76.4 252.85,80.62 264.84,80.62 "
       id="polygon3126-5-9-1"
       transform="matrix(0.30396692,0,0,0.30396692,649.8825,478.22419)"
       style="fill:#fbd766" />
    <polygon
       class="cls-8"
       points="281.39,76.4 269.27,76.4 267.86,80.62 279.84,80.62 "
       id="polygon3128-4-3-1"
       transform="matrix(0.30396692,0,0,0.30396692,649.8825,478.22419)"
       style="fill:#fbd766" />
    <polygon
       class="cls-8"
       points="295.39,76.4 284.27,76.4 283.86,80.62 293.84,80.62 "
       id="polygon3130-9-7-0"
       transform="matrix(0.30396692,0,0,0.30396692,649.8825,478.22419)"
       style="fill:#fbd766" />
    <polygon
       class="cls-8"
       points="304.89,76.4 300.77,76.4 299.36,80.62 304.34,80.62 "
       id="polygon3132-2-8-8"
       transform="matrix(0.30396692,0,0,0.30396692,649.8825,478.22419)"
       style="fill:#fbd766" />
    <polygon
       class="cls-8"
       points="250.89,76.4 246.77,76.4 245.35,80.62 249.93,80.75 "
       id="polygon3134-5-7-5"
       transform="matrix(0.30396692,0,0,0.30396692,649.8825,478.22419)"
       style="fill:#fbd766" />
    <polygon
       class="cls-8"
       points="263.39,85.4 252.27,85.4 250.85,89.62 262.84,89.62 "
       id="polygon3136-7-4-0"
       transform="matrix(0.30396692,0,0,0.30396692,649.8825,478.22419)"
       style="fill:#fbd766" />
    <polygon
       class="cls-8"
       points="278.39,85.4 267.27,85.4 265.86,89.62 277.84,89.62 "
       id="polygon3138-4-1-6"
       transform="matrix(0.30396692,0,0,0.30396692,649.8825,478.22419)"
       style="fill:#fbd766" />
    <polygon
       class="cls-8"
       points="293.39,85.4 282.27,85.4 281.86,89.62 292.84,89.62 "
       id="polygon3140-9-9-4"
       transform="matrix(0.30396692,0,0,0.30396692,649.8825,478.22419)"
       style="fill:#fbd766" />
    <polygon
       class="cls-8"
       points="301.89,85.4 297.77,85.4 296.36,89.62 301.34,89.62 "
       id="polygon3142-9-0-6"
       transform="matrix(0.30396692,0,0,0.30396692,649.8825,478.22419)"
       style="fill:#fbd766" />
    <polygon
       class="cls-8"
       points="248.89,85.4 244.77,85.4 243.35,89.62 248.18,89.62 "
       id="polygon3144-4-9-2"
       transform="matrix(0.30396692,0,0,0.30396692,649.8825,478.22419)"
       style="fill:#fbd766" />
    <path
       class="cls-30"
       d="M 752.83306,487.2125 H 726.6919 a 2.5897982,2.5897982 0 0 0 -2.56547,2.2068 l -2.53812,16.83976 a 2.5928378,2.5928378 0 0 0 2.56547,2.97889 h 25.90712 a 2.5928378,2.5928378 0 0 0 2.56242,-2.17034 l 2.78433,-16.83977 a 2.5928378,2.5928378 0 0 0 -2.57459,-3.01534 z"
       id="path3146-5-8-5"
       style="fill:none;stroke:#141414;stroke-width:0.709634px;stroke-miterlimit:10" />
    <text
       xml:space="preserve"
       style="font-style:normal;font-variant:normal;font-weight:normal;font-stretch:normal;font-size:2.09141px;line-height:1.25;font-family:sans-serif;-inkscape-font-specification:'sans-serif, Normal';font-variant-ligatures:normal;font-variant-caps:normal;font-variant-numeric:normal;font-variant-east-asian:normal;fill:#116466;fill-opacity:1;stroke:none;stroke-width:0.156856"
       x="722.39618"
       y="499.74695"
       id="text3993-8-8"
       transform="rotate(-0.34538142)"><tspan
         sodipodi:role="line"
         id="tspan3991-5-6"
         x="722.39618"
         y="499.74695"
         style="fill:#116466;fill-opacity:1;stroke-width:0.156856">console.log('Hello World')</tspan></text>
  </g>
</svg>
