<?xml version="1.0" encoding="UTF-8" standalone="no"?>
<svg
   xmlns:dc="http://purl.org/dc/elements/1.1/"
   xmlns:cc="http://creativecommons.org/ns#"
   xmlns:rdf="http://www.w3.org/1999/02/22-rdf-syntax-ns#"
   xmlns:svg="http://www.w3.org/2000/svg"
   xmlns="http://www.w3.org/2000/svg"
   xmlns:sodipodi="http://sodipodi.sourceforge.net/DTD/sodipodi-0.dtd"
   xmlns:inkscape="http://www.inkscape.org/namespaces/inkscape"
   width="579.16492mm"
   height="101.90763mm"
   viewBox="0 0 579.16492 101.90763"
   version="1.1"
   id="svg8"
   inkscape:version="1.0.2 (1.0.2+r75+1)"
   sodipodi:docname="logo-github.svg">
  <defs
     id="defs2" />
  <sodipodi:namedview
     id="base"
     pagecolor="#ffffff"
     bordercolor="#666666"
     borderopacity="1.0"
     inkscape:pageopacity="0.0"
     inkscape:pageshadow="2"
     inkscape:zoom="0.0875"
     inkscape:cx="979.89343"
     inkscape:cy="892.63481"
     inkscape:document-units="mm"
     inkscape:current-layer="layer1"
     inkscape:document-rotation="0"
     showgrid="false"
     inkscape:window-width="1516"
     inkscape:window-height="1031"
     inkscape:window-x="1028"
     inkscape:window-y="93"
     inkscape:window-maximized="0" />
  <metadata
     id="metadata5">
    <rdf:RDF>
      <cc:Work
         rdf:about="">
        <dc:format>image/svg+xml</dc:format>
        <dc:type
           rdf:resource="http://purl.org/dc/dcmitype/StillImage" />
        <dc:title></dc:title>
      </cc:Work>
    </rdf:RDF>
  </metadata>
  <g
     inkscape:label="Layer 1"
     inkscape:groupmode="layer"
     id="layer1"
     transform="translate(82.141757,143.90374)">
    <g
       id="g2385"
       transform="matrix(7.0212937,0,0,7.0212937,-547.93087,-420.80899)">
      <path
         d="m 66.88983,42.656714 5.63033,-3.087687 a 1.0583333,1.0583333 0 0 1 1.03452,0.0079 l 5.48482,3.135313 a 1.0583333,1.0583333 0 0 1 0.52916,0.918104 v 6.228291 a 1.0583333,1.0583333 0 0 1 -0.54504,0.926042 l -5.47687,3.034771 a 1.0583333,1.0583333 0 0 1 -1.016,0.0053 L 66.89512,50.782039 A 1.0583333,1.0583333 0 0 1 66.3395,49.850735 v -6.265333 a 1.0583333,1.0583333 0 0 1 0.55033,-0.926042 z"
         id="path1171-1"
         style="fill:#116466;fill-opacity:1;stroke-width:0.264583" />
      <circle
         class="st0"
         cx="72.824539"
         cy="46.892738"
         r="0.83981073"
         id="circle2868-1"
         style="fill:#00d8ff;stroke-width:0.0167293" />
      <path
         class="st0"
         d="m 72.82454,48.816608 c -1.17941,0 -2.20994,-0.138853 -2.98116,-0.403177 -0.5002,-0.170638 -0.92513,-0.398156 -1.22793,-0.657461 -0.3212,-0.274359 -0.49184,-0.573815 -0.49184,-0.863232 0,-0.555413 0.60894,-1.099113 1.63111,-1.453777 0.83646,-0.291089 1.92721,-0.453363 3.06815,-0.453363 1.12086,0 2.19656,0.157255 3.028,0.445 0.48682,0.167293 0.89669,0.384773 1.18778,0.625676 0.31619,0.264321 0.48348,0.553738 0.48348,0.836464 0,0.577162 -0.68088,1.161013 -1.77833,1.52404 -0.77624,0.25763 -1.81345,0.39983 -2.91926,0.39983 z m 0,-3.429508 c -1.08238,0 -2.15306,0.157258 -2.93599,0.429946 -0.94019,0.327892 -1.36176,0.776237 -1.36176,1.075692 0,0.311166 0.45336,0.801333 1.44708,1.140939 0.7294,0.249267 1.71642,0.381426 2.85067,0.381426 1.06398,0 2.05603,-0.133834 2.79379,-0.379754 1.0322,-0.34295 1.50397,-0.83312 1.50397,-1.142611 0,-0.158927 -0.12045,-0.346297 -0.33961,-0.528645 C 76.53008,46.153305 76.16204,45.960915 75.72206,45.808679 74.93076,45.537664 73.90191,45.3871 72.82454,45.3871 Z"
         id="path2870-6"
         style="fill:#00d8ff;stroke-width:0.0167293" />
      <path
         class="st0"
         d="m 70.91907,51.078409 c -0.17063,0 -0.3212,-0.03681 -0.44834,-0.110413 -0.48013,-0.277706 -0.64743,-1.077367 -0.445,-2.139677 0.16562,-0.871599 0.57047,-1.89543 1.14094,-2.884131 0.56043,-0.970301 1.23295,-1.823495 1.8971,-2.400654 0.38812,-0.337934 0.78126,-0.585526 1.13592,-0.716015 0.38645,-0.142198 0.72103,-0.142198 0.96528,-0.0016 0.50021,0.287745 0.66583,1.171051 0.43162,2.301952 -0.16562,0.803005 -0.56044,1.771631 -1.1125,2.730219 -0.58887,1.020488 -1.22459,1.843569 -1.83855,2.380581 -0.39816,0.347969 -0.80803,0.602255 -1.18276,0.734414 -0.19574,0.07027 -0.37976,0.105397 -0.54371,0.105397 z m 0.41991,-5.033846 0.17399,0.100375 c -0.54036,0.936842 -0.94019,1.942272 -1.0941,2.758663 -0.1857,0.978662 -0.007,1.567534 0.25094,1.716426 0.0636,0.0368 0.14722,0.05688 0.24926,0.05688 0.33292,0 0.85654,-0.210788 1.46214,-0.739433 0.58051,-0.506897 1.18779,-1.296522 1.75491,-2.278531 0.53199,-0.921785 0.91007,-1.848588 1.06733,-2.609771 0.21915,-1.065654 0.0301,-1.718098 -0.23923,-1.873681 -0.13718,-0.07863 -0.35968,-0.06859 -0.62735,0.03011 -0.30949,0.11376 -0.65913,0.336259 -1.01045,0.642406 -0.63069,0.548722 -1.27477,1.36511 -1.81345,2.298605 z"
         id="path2874-8"
         style="fill:#00d8ff;stroke-width:0.0167293" />
      <path
         class="st0"
         d="m 74.73001,51.083426 c -0.45504,0 -1.0322,-0.27436 -1.63446,-0.792967 -0.67251,-0.578834 -1.35674,-1.440394 -1.92888,-2.429094 v 0 c -0.56211,-0.970299 -0.96361,-1.979076 -1.13257,-2.84398 -0.0987,-0.505225 -0.11711,-0.968627 -0.0535,-1.341692 0.0703,-0.406521 0.23588,-0.695938 0.48181,-0.838136 0.49853,-0.289417 1.3467,0.0084 2.20994,0.77624 0.61229,0.543703 1.25469,1.370129 1.80843,2.327044 0.59055,1.020488 0.98703,1.982423 1.14429,2.782084 0.10204,0.518607 0.11877,1.00041 0.0468,1.391877 -0.077,0.416558 -0.25094,0.712666 -0.50188,0.858211 -0.12547,0.07361 -0.27436,0.110413 -0.43998,0.110413 z m -3.21537,-3.422814 c 0.54203,0.936842 1.21454,1.785017 1.84357,2.325373 0.75449,0.649097 1.3534,0.789622 1.6127,0.639058 0.26934,-0.15558 0.46675,-0.792967 0.26265,-1.823492 -0.15056,-0.756163 -0.53032,-1.676276 -1.09911,-2.658285 -0.53367,-0.921784 -1.14763,-1.713079 -1.72814,-2.228342 -0.81305,-0.722706 -1.47218,-0.884981 -1.74152,-0.729398 -0.13718,0.07863 -0.23923,0.277707 -0.28774,0.558758 -0.0552,0.324548 -0.0385,0.739436 0.0519,1.196144 0.1606,0.82141 0.54537,1.786689 1.08573,2.720184 z"
         id="path2878-8"
         style="fill:#00d8ff;stroke-width:0.0167293" />
      <text
         xml:space="preserve"
         style="font-style:normal;font-variant:normal;font-weight:bold;font-stretch:normal;font-size:6.35px;line-height:1.25;font-family:sans-serif;-inkscape-font-specification:'sans-serif, Bold';font-variant-ligatures:normal;font-variant-caps:normal;font-variant-numeric:normal;font-variant-east-asian:normal;letter-spacing:0.341312px;opacity:0.969;fill:#dbe3e2;fill-opacity:1;stroke:none;stroke-width:0.264583;stroke-miterlimit:4;stroke-dasharray:none;stroke-opacity:1"
         x="81.837402"
         y="49.281761"
         id="text2831-6"><tspan
           sodipodi:role="line"
           id="tspan2829-6"
           x="81.837402"
           y="49.281761"
           style="font-style:normal;font-variant:normal;font-weight:bold;font-stretch:normal;font-size:6.35px;font-family:sans-serif;-inkscape-font-specification:'sans-serif, Bold';font-variant-ligatures:normal;font-variant-caps:normal;font-variant-numeric:normal;font-variant-east-asian:normal;fill:#dbe3e2;stroke:none;stroke-width:0.264583">React Boilerplate</tspan></text>
    </g>
  </g>
</svg>
