<?xml version="1.0" encoding="UTF-8" standalone="no"?>
<svg
   xmlns:dc="http://purl.org/dc/elements/1.1/"
   xmlns:cc="http://creativecommons.org/ns#"
   xmlns:rdf="http://www.w3.org/1999/02/22-rdf-syntax-ns#"
   xmlns:svg="http://www.w3.org/2000/svg"
   xmlns="http://www.w3.org/2000/svg"
   xmlns:sodipodi="http://sodipodi.sourceforge.net/DTD/sodipodi-0.dtd"
   xmlns:inkscape="http://www.inkscape.org/namespaces/inkscape"
   width="579.16492mm"
   height="101.90763mm"
   viewBox="0 0 579.16492 101.90763"
   version="1.1"
   id="svg8"
   inkscape:version="1.0.2 (1.0.2+r75+1)"
   sodipodi:docname="logo-github.svg">
  <defs
     id="defs2" />
  <sodipodi:namedview
     id="base"
     pagecolor="#ffffff"
     bordercolor="#666666"
     borderopacity="1.0"
     inkscape:pageopacity="0.0"
     inkscape:pageshadow="2"
     inkscape:zoom="0.0875"
     inkscape:cx="979.89343"
     inkscape:cy="892.63481"
     inkscape:document-units="mm"
     inkscape:current-layer="layer1"
     inkscape:document-rotation="0"
     showgrid="false"
     inkscape:window-width="1920"
     inkscape:window-height="1030"
     inkscape:window-x="0"
     inkscape:window-y="0"
     inkscape:window-maximized="1" />
  <metadata
     id="metadata5">
    <rdf:RDF>
      <cc:Work
         rdf:about="">
        <dc:format>image/svg+xml</dc:format>
        <dc:type
           rdf:resource="http://purl.org/dc/dcmitype/StillImage" />
        <dc:title></dc:title>
      </cc:Work>
    </rdf:RDF>
  </metadata>
  <g
     inkscape:label="Layer 1"
     inkscape:groupmode="layer"
     id="layer1"
     transform="translate(82.141757,143.90374)">
    <path
       d="m -78.277728,-121.30367 39.532201,-21.67956 a 7.4308689,7.4308689 0 0 1 7.263668,0.0555 l 38.5105324,22.01395 a 7.4308689,7.4308689 0 0 1 3.7153876,6.44628 v 43.73066 a 7.4308689,7.4308689 0 0 1 -3.8268857,6.502013 l -38.4547133,21.308018 a 7.4308689,7.4308689 0 0 1 -7.133634,0.03721 l -39.569413,-21.363753 a 7.4308689,7.4308689 0 0 1 -3.901172,-6.538959 v -43.990739 a 7.4308689,7.4308689 0 0 1 3.864029,-6.50201 z"
       id="path1171-1"
       style="fill:#116466;fill-opacity:1;stroke-width:1.85771" />
    <circle
       class="st0"
       cx="-36.608391"
       cy="-91.561302"
       r="5.8965578"
       id="circle2868-1"
       style="fill:#00d8ff;stroke-width:0.117461" />
    <path
       class="st0"
       d="m -36.608386,-78.053248 c -8.280984,0 -15.516638,-0.974927 -20.9316,-2.830824 -3.512051,-1.198099 -6.495609,-2.79557 -8.621657,-4.616227 -2.25524,-1.926355 -3.453353,-4.028923 -3.453353,-6.061005 0,-3.899718 4.275546,-7.717195 11.452502,-10.207396 5.873031,-2.04382 13.531508,-3.18319 21.542382,-3.18319 7.869888,0 15.422693,1.10413 21.260478,3.12447 3.418106,1.17461 6.2959235,2.701606 8.3397519,4.393056 2.2200629,1.855876 3.3946551,3.887958 3.3946551,5.87306 0,4.052424 -4.7806585,8.151813 -12.486177,10.700732 -5.450209,1.808896 -12.732765,2.807324 -20.496982,2.807324 z m 0,-24.079582 c -7.599708,0 -15.117267,1.10415 -20.614448,3.018776 -6.60135,2.302226 -9.561317,5.450188 -9.561317,7.55275 0,2.184788 3.183174,5.626394 10.160374,8.010868 5.121331,1.750177 12.051489,2.678104 20.015391,2.678104 7.470516,0 14.43599,-0.939688 19.61602,-2.666365 7.2473794,-2.407952 10.5598151,-5.84958 10.5598151,-8.022607 0,-1.115873 -0.8457148,-2.431453 -2.3845015,-3.711772 -1.7736486,-1.480004 -4.3577656,-2.830831 -7.4469946,-3.899725 -5.55595,-1.902879 -12.779808,-2.960029 -20.344339,-2.960029 z"
       id="path2870-6"
       style="fill:#00d8ff;stroke-width:0.117461" />
    <path
       class="st0"
       d="m -49.987251,-62.172479 c -1.198043,0 -2.255239,-0.258454 -3.147926,-0.775242 -3.371134,-1.949855 -4.545797,-7.56451 -3.124476,-15.0233 1.162867,-6.119753 4.005437,-13.308371 8.010875,-20.250331 3.934943,-6.812768 8.656904,-12.803298 13.320096,-16.855698 2.725105,-2.37273 5.485456,-4.11115 7.975628,-5.02735 2.713379,-0.99841 5.062563,-0.99841 6.777514,-0.0112 3.512122,2.02034 4.674988,8.22229 3.030531,16.16268 -1.162867,5.63813 -3.935014,12.439138 -7.811189,19.169666 -4.134629,7.165146 -8.598206,12.944239 -12.909,16.714758 -2.795598,2.443193 -5.673416,4.228609 -8.304505,5.156537 -1.374348,0.493386 -2.666406,0.740023 -3.817548,0.740023 z m 2.948312,-35.344111 1.221635,0.704762 c -3.794027,6.577843 -6.60135,13.637263 -7.681998,19.369384 -1.303854,6.871473 -0.04915,11.006116 1.761924,12.051531 0.446554,0.258383 1.033675,0.399371 1.750127,0.399371 2.337529,0 6.014019,-1.480005 10.266115,-5.191776 4.075931,-3.559073 8.339822,-9.103262 12.321738,-15.998236 3.735258,-6.472123 6.389869,-12.979479 7.494038,-18.323966 1.538716,-7.48227 0.211341,-12.06327 -1.679704,-13.15567 -0.963181,-0.55208 -2.525419,-0.48159 -4.404809,0.21141 -2.17302,0.79875 -4.627945,2.36098 -7.094666,4.51053 -4.42826,3.85273 -8.950535,9.58483 -12.732765,16.139176 z"
       id="path2874-8"
       style="fill:#00d8ff;stroke-width:0.117461" />
    <path
       class="st0"
       d="m -23.229522,-62.137253 c -3.194969,0 -7.247379,-1.926362 -11.476023,-5.567654 -4.721891,-4.064164 -9.52607,-10.113429 -13.543233,-17.055382 v 0 c -3.94674,-6.812755 -6.765789,-13.895674 -7.952107,-19.968421 -0.693002,-3.54733 -0.822264,-6.80101 -0.375639,-9.42041 0.493597,-2.85431 1.656183,-4.88639 3.382929,-5.8848 3.500326,-2.03208 9.455577,0.059 15.516638,5.45021 4.299068,3.8175 8.809547,9.62008 12.697518,16.338857 4.146425,7.165146 6.930228,13.919175 8.034397,19.533829 0.716452,3.641292 0.833919,7.024173 0.328596,9.772778 -0.54064,2.924776 -1.761923,5.003837 -3.523847,6.025751 -0.880962,0.516837 -1.926362,0.775242 -3.089229,0.775242 z m -22.576057,-24.032582 c 3.805752,6.577843 8.527642,12.533128 12.944247,16.327127 5.297496,4.5575 9.502619,5.544168 11.32324,4.487013 1.891115,-1.092372 3.277189,-5.567654 1.844143,-12.803272 -1.057126,-5.309243 -3.723533,-11.769627 -7.717174,-18.6646 -3.747054,-6.472113 -8.057848,-12.028033 -12.133779,-15.645843 -5.708663,-5.07433 -10.336608,-6.21371 -12.227723,-5.12132 -0.963181,0.55209 -1.679704,1.94986 -2.020307,3.92321 -0.387576,2.27874 -0.27032,5.19179 0.364405,8.39847 1.12762,5.767365 3.829203,12.544872 7.623229,19.099215 z"
       id="path2878-8"
       style="fill:#00d8ff;stroke-width:0.117461" />
    <text
       xml:space="preserve"
       style="font-style:normal;font-variant:normal;font-weight:bold;font-stretch:normal;font-size:44.5852px;line-height:1.25;font-family:sans-serif;-inkscape-font-specification:'sans-serif, Bold';font-variant-ligatures:normal;font-variant-caps:normal;font-variant-numeric:normal;font-variant-east-asian:normal;letter-spacing:2.39645px;opacity:0.969;fill:#dbe3e2;fill-opacity:1;stroke:none;stroke-width:1.85771;stroke-miterlimit:4;stroke-dasharray:none;stroke-opacity:1"
       x="26.673567"
       y="-74.78727"
       id="text2831-6"><tspan
         sodipodi:role="line"
         id="tspan2829-6"
         x="26.673567"
         y="-74.78727"
         style="font-style:normal;font-variant:normal;font-weight:bold;font-stretch:normal;font-size:44.5852px;font-family:sans-serif;-inkscape-font-specification:'sans-serif, Bold';font-variant-ligatures:normal;font-variant-caps:normal;font-variant-numeric:normal;font-variant-east-asian:normal;fill:#dbe3e2;stroke:none;stroke-width:1.85771">React Boilerplate</tspan></text>
  </g>
</svg>
